<svg width="60" height="57" xmlns="http://www.w3.org/2000/svg">

 <g>
  <title>Layer 1</title>
  <path id="svg_1" fill="#b2b2b2" d="m10.92,14.17l-2.73,-4.72l2.73,-4.73l5.45,0l2.73,4.73l-2.73,4.72l-5.45,0zm-8.19,14.18l-2.73,-4.72l2.73,-4.73l5.46,0l2.73,4.73l-2.73,4.72l-5.46,0zm40.93,-14.18l-2.73,-4.72l2.73,-4.73l5.46,0l2.72,4.73l-2.72,4.72l-5.46,0zm8.18,14.18l-2.72,-4.72l2.72,-4.73l5.46,0l2.73,4.73l-2.73,4.72l-5.46,0zm-32.74,28.36l-2.73,-4.73l2.73,-4.72l5.46,0l2.73,4.72l-2.73,4.73l-5.46,0zm16.37,0l-2.72,-4.73l2.72,-4.72l5.46,0l2.73,4.72l-2.73,4.73l-5.46,0zm-8.18,-33.08l-2.73,-4.73l2.73,-4.73l5.46,0l2.72,4.73l-2.73,4.73l-5.45,0z"/>
  <path id="svg_2" d="m27.29,33.08l-2.73,-4.73l2.73,-4.73l5.46,0l2.72,4.73l-2.73,4.73l-5.45,0z" fill="#fff"/>
  <path id="svg_3" fill="#b2b2b2" d="m19.1,37.8l-2.73,-4.72l2.73,-4.73l5.46,0l2.73,4.73l-2.73,4.72l-5.46,0zm16.37,0l-2.72,-4.72l2.72,-4.73l5.46,0l2.73,4.73l-2.73,4.72l-5.46,0z"/>
  <path id="svg_4" d="m10.92,23.63l-2.73,-4.73l2.73,-4.73l5.45,0l2.73,4.73l-2.73,4.73l-5.45,0zm16.37,-9.46l-2.73,-4.72l2.73,-4.73l5.46,0l2.72,4.73l-1,1.73l-1.73,2.99l-5.45,0zm-16.37,28.36l-2.73,-4.73l2.73,-4.72l5.45,0l2.73,4.72l-2.73,4.73l-5.45,0zm32.74,-18.9l-2.73,-4.73l2.73,-4.73l5.46,0l2.72,4.73l-2.72,4.73l-5.46,0zm-16.37,28.35l-2.73,-4.72l2.73,-4.73l5.46,0l2.72,4.73l-2.73,4.72l-5.45,0zm16.37,-9.45l-2.73,-4.73l2.73,-4.72l5.46,0l2.72,4.72l-2.72,4.73l-5.46,0z" fill="#76b82a"/>
  <path id="svg_5" d="m19.1,9.45l-2.73,-4.73l2.73,-4.72l5.46,0l2.73,4.72l-2.73,4.73l-5.46,0zm16.37,0l-2.72,-4.73l2.72,-4.72l5.46,0l2.73,4.72l-2.73,4.73l-5.46,0zm-32.74,28.35l-2.73,-4.72l2.73,-4.73l5.46,0l2.73,4.73l-2.73,4.72l-5.46,0zm8.19,14.18l-2.73,-4.72l2.73,-4.73l5.45,0l2.73,4.73l-2.73,4.72l-5.45,0zm40.92,-14.18l-2.72,-4.72l2.72,-4.73l5.46,0l2.73,4.73l-2.73,4.72l-5.46,0zm-8.18,14.18l-2.73,-4.72l2.73,-4.73l5.46,0l2.72,4.73l-2.72,4.72l-5.46,0zm-19.1,-23.63l-5.46,0l-2.73,-4.72l2.73,-4.73l5.46,0l2.73,4.73l-2.73,4.72zm16.37,0l-5.46,0l-2.72,-4.72l2.72,-4.73l5.46,0l2.73,4.73l-2.73,4.72zm-13.64,14.18l-2.73,-4.73l2.73,-4.72l5.46,0l2.72,4.72l-2.73,4.73l-5.45,0z" fill="#bccf00"/>
  <path id="svg_6" d="m24.56,18.9l-5.46,0l-2.73,-4.73l2.73,-4.72l5.46,0l2.73,4.72l-2.73,4.73zm-13.64,14.18l-2.73,-4.73l2.73,-4.72l5.45,0l2.73,4.72l-2.73,4.73l-5.45,0zm30.01,-14.18l-5.46,0l-2.72,-4.73l1.72,-2.99l1,-1.73l5.46,0l2.73,4.72l-2.73,4.73zm-16.37,28.36l-5.46,0l-2.73,-4.73l2.73,-4.73l5.46,0l2.73,4.73l-2.73,4.73zm19.1,-14.18l-2.73,-4.73l2.73,-4.72l5.46,0l2.72,4.72l-2.72,4.73l-5.46,0zm-2.73,14.18l-5.46,0l-2.72,-4.73l2.72,-4.73l5.46,0l2.73,4.73l-2.73,4.73z" fill="#f2e500"/>
 </g>
</svg>